HIERARCHY
ROOT Hips
{
  OFFSET -143.074 99.0332 5.27807
  CHANNELS 6 Xposition Yposition Zposition Zrotation Xrotation Yrotation
  JOINT RightUpLeg
  {
    OFFSET -8.9458 -8.66707 0.101652
    CHANNELS 3 Zrotation Xrotation Yrotation
    JOINT RightLeg
    {
      OFFSET 0 -44.4227 1.3727
      CHANNELS 3 Zrotation Xrotation Yrotation
      JOINT RightFoot
      {
        OFFSET 0.253549 -42.0924 -1.46059
        CHANNELS 3 Zrotation Xrotation Yrotation
        JOINT RightToes
        {
          OFFSET 0.04 -4.41509 8.4991
          CHANNELS 3 Zrotation Xrotation Yrotation
          End Site
          {
            OFFSET -0.08 -0.137448 9.77979
          }
        }
      }
    }
  }
  JOINT Spine
  {
    OFFSET 0 11.8905 0
    CHANNELS 3 Zrotation Xrotation Yrotation
    JOINT Spine1
    {
      OFFSET 0 25.6574 0.127663
      CHANNELS 3 Zrotation Xrotation Yrotation
      JOINT HEad
      {
        OFFSET 0 8.73416 0.011341
        CHANNELS 3 Zrotation Xrotation Yrotation
        End Site
        {
          OFFSET -0.29 12.7742 2.51395
        }
      }
      JOINT LeftShoulder1
      {
        OFFSET 8.99 -0.362252 -0.22
        CHANNELS 3 Zrotation Xrotation Yrotation
        JOINT LeftArm
        {
          OFFSET 10.2827 -0.00338 0.322123
          CHANNELS 3 Zrotation Xrotation Yrotation
          JOINT LeftForeArm
          {
            OFFSET 32.7669 0.099144 -1.42434
            CHANNELS 3 Zrotation Xrotation Yrotation
            JOINT LeftHand
            {
              OFFSET 27.5643 0.085362 1.02216
              CHANNELS 3 Zrotation Xrotation Yrotation
              End Site
              {
                OFFSET 16.7443 -0.6 1.50291
              }
            }
          }
        }
      }
      JOINT RightShoulder
      {
        OFFSET -8.99 -0.362252 -0.22
        CHANNELS 3 Zrotation Xrotation Yrotation
        JOINT RightArm
        {
          OFFSET -10.2827 -0.00338 0.322123
          CHANNELS 3 Zrotation Xrotation Yrotation
          JOINT RightForeArm
          {
            OFFSET -32.8971 0.099144 -1.42434
            CHANNELS 3 Zrotation Xrotation Yrotation
            JOINT RightHand
            {
              OFFSET -27.4921 0.085362 1.02216
              CHANNELS 3 Zrotation Xrotation Yrotation
              End Site
              {
                OFFSET -16.6312 -0.6 1.50291
              }
            }
          }
        }
      }
    }
  }
  JOINT LeftUpLeg
  {
    OFFSET 8.9458 -8.66707 0.101652
    CHANNELS 3 Zrotation Xrotation Yrotation
    JOINT LeftLeg
    {
      OFFSET 0 -44.4227 1.3727
      CHANNELS 3 Zrotation Xrotation Yrotation
      JOINT LeftFoot
      {
        OFFSET -0.253549 -42.0924 -1.46059
        CHANNELS 3 Zrotation Xrotation Yrotation
        JOINT LeftToes
        {
          OFFSET -0.04 -4.41509 8.4991
          CHANNELS 3 Zrotation Xrotation Yrotation
          End Site
          {
            OFFSET 0.08 -0.047448 9.77979
          }
        }
      }
    }
  }
}
MOTION
Frames:	14
Frame Time:	0.0166667
-116.684 90.0641 11.5745 11.6942 -7.63145 55.7999 -7.62305 18.8074 6.76095 14.5479 37.9372 -21.9207 6.67606 -0.883177 -0.523227 -26.0452 -24.0599 -13.8025 -0.112423 13.5513 10.6264 -7.28135 27.0774 23.1426 2.98299 -23.828 -25.3672 -1.59028e-015 -5.2181e-016 -9.93923e-016 -57.8892 -2.84809 -39.1808 -10.9491 31.1627 -105.302 18.9089 6.42027 -17.3667 -10.6338 -1.41552 28.9409 11.0868 -14.9724 37.0642 -24.4338 -14.1668 7.98063 29.553 13.7927 10.2927 12.9256 -18.0364 2.25049 -1.44359 19.985 -24.7943 -15.5319 14.3953 2.88907 -4.82681 -16.1851 -6.75443 
-116.921 89.9368 11.2693 11.9235 -8.34478 56.2446 -7.38285 18.1912 7.44633 15.5896 39.3931 -23.001 8.08635 1.56733 -0.763407 -28.6793 -25.7902 -14.5083 0.256032 14.2107 10.0716 -6.57422 28.5236 22.0751 2.88839 -24.8226 -25.5738 3.51733e-032 2.5345e-015 -7.95139e-016 -59.1583 -4.72472 -44.1501 -9.94466 33.222 -104.604 20.1696 6.61494 -14.8577 -7.63451 -0.566195 27.9784 13.5525 -18.3947 38.891 -22.307 -11.5678 16.3813 32.9552 15.6812 15.0641 13.2196 -18.073 3.07289 -1.07962 20.4838 -26.0326 -15.6064 15.0088 2.9834 -5.05459 -16.7662 -7.12005 
-117.076 89.8568 10.7287 11.874 -9.32785 55.2216 -7.90849 17.1137 7.99067 16.5379 40.9129 -23.049 9.40506 4.78103 -1.11151 -32.3426 -28.1 -15.4431 0.52756 14.8735 9.82171 -5.98494 29.8988 21.607 2.77673 -25.4341 -25.7691 1.59028e-015 8.94531e-015 -0 -61.4746 -6.43621 -48.675 -9.60322 34.978 -102.9 20.3595 6.85369 -13.3188 -4.33946 0.304579 27.1 17.3245 -23.552 41.6083 -18.2048 -7.09403 27.6754 34.9792 14.9157 11.5135 13.9967 -17.9257 3.34518 -0.918552 21.3183 -25.4997 -15.4215 15.1736 2.96759 -5.22775 -17.2532 -7.18461 
-117.123 89.7743 10.0478 11.439 -10.3771 52.9811 -8.90664 15.5768 8.0519 16.9325 42.4836 -21.9312 10.5698 8.23294 -1.53244 -36.6163 -30.6485 -16.6019 0.657224 15.4318 9.7951 -5.5208 30.9963 21.5406 2.76257 -25.9736 -25.3928 3.18055e-015 1.39149e-015 2.38542e-015 -64.1119 -8.00473 -52.2986 -10.0737 36.2154 -100.345 19.6417 7.02103 -13.0025 -0.624199 1.2244 26.1653 23.6914 -30.6371 45.9076 -11.8768 1.65788 40.462 32.7985 12.4094 4.15121 15.1491 -17.8375 2.99748 -1.03062 22.5519 -23.2734 -15.0811 14.9314 2.86861 -5.37647 -17.6994 -7.12825 
-117.07 89.6194 9.31638 10.7107 -11.3826 49.8961 -10.0484 13.7439 7.6955 16.6251 44.0947 -19.9479 11.6407 11.4068 -1.98157 -41.1107 -33.1438 -17.9895 0.652298 15.8516 9.82281 -5.08721 31.773 21.5061 2.87468 -26.4183 -24.0977 3.18055e-015 -2.18663e-015 -3.18055e-015 -66.5139 -9.76202 -54.6668 -11.3365 36.9536 -97.394 18.47 7.0888 -13.7205 3.6697 2.23858 25.4408 33.0354 -38.5051 51.9245 -4.07811 14.973 51.9944 26.4581 10.3205 -2.55745 16.5674 -17.8957 2.17733 -1.49132 24.2717 -19.7508 -14.778 14.4173 2.74509 -5.55384 -18.2002 -7.17449 
-116.939 89.3424 8.5964 9.90996 -12.3384 46.307 -11.1949 11.9005 7.33778 15.9256 45.624 -17.7018 12.5763 13.9479 -2.39934 -45.472 -35.353 -19.6016 0.567005 16.1601 9.73472 -4.5976 32.3157 21.1652 3.03336 -26.5051 -21.8541 1.59028e-015 6.75868e-015 1.59028e-015 -68.4363 -12.0631 -55.609 -13.1743 37.3545 -94.6638 17.2972 7.08948 -14.9885 8.61885 3.41295 25.1608 44.879 -46.191 59.4497 4.84541 31.6014 60.0551 18.4334 9.56732 -6.32363 18.1441 -17.9844 1.13282 -2.37289 26.4527 -15.4212 -14.652 13.8012 2.64562 -5.82351 -18.8659 -7.54692 
-116.736 88.9337 7.91759 9.24339 -13.2971 42.4643 -12.3569 10.3056 7.31394 15.178 46.9668 -15.5943 13.2779 15.7229 -2.72625 -49.4173 -37.1589 -21.2839 0.484844 16.3936 9.41059 -4.03157 32.727 20.3154 3.09188 -26.0365 -18.7448 3.18055e-015 0 -1.59028e-015 -69.851 -15.111 -55.1613 -15.2887 37.631 -92.6784 16.4069 7.05908 -16.2921 14.1676 4.7818 25.2341 58.7083 -53.5029 68.6257 16.3535 49.6368 62.6497 11.1769 9.61991 -7.05065 19.7645 -17.8971 0.14173 -3.68077 28.9249 -10.7473 -14.7417 13.2932 2.60043 -6.27062 -19.8422 -8.45078 
-116.456 88.4249 7.28835 8.77476 -14.319 38.5399 -13.5154 9.0747 7.63078 14.3666 48.0977 -13.5419 13.7443 16.8249 -2.94714 -52.8694 -38.6288 -22.7766 0.489866 16.5609 8.79977 -3.40559 33.0454 18.9065 2.91186 -25.0638 -14.8521 1.32417e-031 2.38542e-015 -3.18055e-015 -70.842 -18.9252 -53.5856 -17.417 37.9838 -91.6402 15.887 7.01482 -17.3147 20.0638 6.26872 25.3154 61.6537 -55.9593 68.9452 25.3072 57.3976 64.9393 8.84679 9.6297 -7.60011 21.3544 -17.485 -0.527172 -5.287 31.4379 -6.16262 -15.0284 13.0849 2.62738 -6.97218 -21.2272 -9.98406 
-116.113 87.8739 6.71695 8.39928 -15.4203 34.6542 -14.5429 8.17024 8.15379 13.2987 48.9885 -11.292 14.0869 17.4994 -3.0996 -55.9505 -39.909 -23.9751 0.612309 16.6509 7.92721 -2.72512 33.2482 17.0075 2.44761 -23.8139 -10.3136 5.29669e-031 -4.77083e-015 6.36111e-015 -71.5626 -23.3882 -51.3364 -19.3973 38.5386 -91.3883 15.6411 6.96576 -18.0301 25.7899 7.65667 25.0652 53.8086 -54.6751 60.1545 28.3623 57.886 72.0979 9.73842 9.41051 -9.7422 22.9277 -16.7235 -0.706521 -6.97223 33.7417 -2.02077 -15.4353 13.2371 2.72141 -7.94326 -22.9481 -12.0934 
-115.75 87.3517 6.22367 7.95047 -16.5464 30.9087 -15.2621 7.49073 8.83638 11.9328 49.5589 -8.81312 14.4381 18.013 -3.23891 -58.7443 -41.0394 -24.9988 0.810047 16.6548 6.8653 -1.9774 33.2972 14.7324 1.77268 -22.4942 -5.35398 -9.54166e-015 0 6.36111e-015 -72.1759 -28.3067 -48.916 -21.1735 39.293 -91.5525 15.4567 6.92286 -18.6269 30.6452 8.67935 24.3736 44.8242 -51.8184 50.5689 28.6725 57.5093 80.9273 11.0456 9.09069 -12.2698 24.5387 -15.6636 -0.465111 -8.57938 35.6049 1.51448 -15.8106 13.6333 2.84289 -9.09243 -24.7672 -14.4882 
-115.444 86.9442 5.8319 7.3421 -17.5949 27.4264 -15.5482 6.97556 9.71683 10.4058 49.7106 -6.32329 14.8685 18.5499 -3.40269 -61.1701 -41.9564 -25.9632 1.038 16.5697 5.66809 -1.16036 33.1689 12.1602 1.00539 -21.1634 -0.21797 -3.53113e-031 -6.36111e-015 -3.18055e-015 -72.7631 -33.4454 -46.6478 -22.715 40.131 -91.8075 15.142 6.89912 -19.3006 34.0165 9.18168 23.3872 37.285 -46.9617 42.3847 25.911 55.8475 91.0746 12.0365 8.7783 -14.4601 26.1648 -14.3521 -0.111847 -10.0753 36.784 4.45473 -15.984 14.0355 2.92913 -10.1915 -26.3869 -16.544 
-115.282 86.7498 5.55392 6.62291 -18.4605 24.3632 -15.3942 6.63261 10.7715 8.85209 49.3778 -4.03748 15.4778 19.2112 -3.62899 -63.1759 -42.66 -26.8337 1.29986 16.3908 4.33941 -0.307028 32.8496 9.31844 0.239398 -19.7569 4.8946 -0 -3.18055e-015 -0 -73.2323 -38.5178 -44.5154 -23.9218 40.889 -92.0668 14.6615 6.90423 -20.0588 35.6747 9.1938 22.3392 32.7901 -40.7997 36.9599 21.7329 53.0895 100.864 12.4083 8.5374 -16.2687 27.6396 -12.8158 0.00648802 -11.378 37.0353 6.80635 -15.86 14.2499 2.93373 -10.9349 -27.5606 -17.5236 
-115.355 86.8625 5.38749 5.91149 -19.0563 21.8654 -14.8882 6.48098 11.8209 7.29147 48.5414 -1.92944 16.4897 19.9965 -3.97795 -64.7844 -43.2486 -27.4264 1.59067 16.1118 2.88338 0.51541 32.3232 6.24616 -0.468653 -18.1897 9.7995 1.59028e-015 3.18055e-015 3.18055e-015 -73.3145 -43.2 -42.2208 -24.6405 41.4405 -92.4452 14.1564 6.93269 -20.7233 35.8969 8.8734 21.3713 31.1034 -34.3853 34.2604 17.9057 49.8778 108.989 12.4509 8.31514 -18.1499 28.717 -11.1136 -0.291923 -12.1951 36.1829 8.48948 -15.4591 14.3279 2.86619 -11.1004 -28.1408 -17.0127 
-115.723 87.3597 5.31934 5.27022 -19.3125 19.9899 -14.1292 6.48729 12.6014 5.72071 47.1901 0.215809 18.0256 20.7154 -4.46391 -65.7554 -43.7685 -27.3651 1.84635 15.7236 1.36543 1.24122 31.5626 3.06509 -1.09511 -16.4471 14.2907 -1.59028e-015 -6.36111e-015 -0 -72.726 -47.2298 -39.4258 -24.8131 41.7721 -93.0194 13.7841 6.96951 -21.1119 35.3114 8.41959 20.5328 31.0319 -28.3577 33.5948 14.991 46.7437 115.383 12.5734 8.02121 -20.5251 29.2265 -9.36454 -1.00816 -12.1575 34.1634 9.51284 -14.9134 14.5993 2.794 -10.629 -28.0237 -15.0341 
